M48
; DRILL file KiCad 10.0.5 date 2026-08-30T21:59:50
; FORMAT={-:-/ absolute / metric / decimal}
; #@! TF.CreationDate,2026-08-30T21:59:50+02:00
; #@! TF.GenerationSoftware,Kicad,Pcbnew,10.0.5
; #@! TF.FileFunction,Plated,1,2,PTH
FMAT,2
METRIC
; #@! TA.AperFunction,Plated,PTH,ViaDrill
T1C0.300
; #@! TA.AperFunction,Plated,PTH,ComponentDrill
T2C0.600
; #@! TA.AperFunction,Plated,PTH,ComponentDrill
T3C0.750
; #@! TA.AperFunction,Plated,PTH,ComponentDrill
T4C0.800
%
G90
G05
T1
X62.5Y-29.75
X70.0Y-37.25
X70.0Y-41.75
X70.45Y-27.25
X70.45Y-29.75
X70.45Y-32.25
X70.45Y-34.25
X71.55Y-27.25
X71.55Y-29.75
X71.55Y-32.25
X71.55Y-34.25
X72.0Y-37.25
X72.0Y-43.25
X81.0Y-38.5
X82.0Y-42.0
X91.5Y-45.25
X92.0Y-38.35
X97.5Y-39.0
X99.6Y-40.75
X100.0Y-36.25
X101.0Y-34.25
X101.0Y-36.25
X101.5Y-38.25
X106.5Y-38.5
X108.5Y-36.25
T3
X92.5Y-23.95
X94.5Y-23.95
T4
X22.5Y-24.75
X25.0Y-24.75
X27.0Y-19.5
X27.5Y-24.75
X29.0Y-19.5
X30.0Y-24.75
X31.0Y-19.5
X32.5Y-24.75
X33.0Y-19.5
X35.0Y-19.5
X35.0Y-24.75
X35.0Y-39.99
X37.0Y-19.5
X37.5Y-24.75
X37.5Y-39.99
X37.5Y-44.5
X39.0Y-19.5
X39.5Y-44.5
X40.0Y-24.75
X40.0Y-39.99
X41.0Y-19.5
X41.5Y-44.5
X42.5Y-24.75
X42.5Y-39.99
X43.0Y-19.5
X43.5Y-44.5
X45.0Y-19.5
X45.0Y-24.75
X45.0Y-29.37
X45.0Y-31.37
X45.0Y-33.37
X45.0Y-35.37
X45.0Y-39.99
X45.5Y-44.5
X47.0Y-19.5
X47.5Y-24.75
X47.5Y-39.99
X47.5Y-44.5
X49.0Y-19.5
X49.5Y-44.5
X50.0Y-24.75
X50.0Y-39.99
X51.0Y-19.5
X51.5Y-44.5
X52.5Y-24.75
X52.5Y-39.99
X53.0Y-19.5
X53.5Y-44.5
X55.0Y-19.5
X55.0Y-24.75
X55.0Y-39.99
X55.5Y-44.5
X57.0Y-19.5
X57.5Y-24.75
X57.5Y-39.99
X57.5Y-44.5
X59.0Y-19.5
X59.5Y-44.5
X60.0Y-24.75
X60.0Y-39.99
X61.0Y-19.5
X61.5Y-44.5
X62.5Y-24.75
X62.5Y-39.87
X63.0Y-19.5
X63.5Y-44.5
X65.0Y-19.5
X65.0Y-24.75
X65.0Y-39.99
X65.5Y-44.5
X67.5Y-24.75
X67.5Y-39.99
X70.0Y-24.75
X70.0Y-39.99
T2
G00X106.745Y-18.68
M15
G01X107.845Y-18.68
M16
G05
G00X106.745Y-27.32
M15
G01X107.845Y-27.32
M16
G05
G00X111.075Y-18.68
M15
G01X111.875Y-18.68
M16
G05
G00X111.075Y-27.32
M15
G01X111.875Y-27.32
M16
G05
M30
