%TF.GenerationSoftware,KiCad,Pcbnew,10.0.5*%
%TF.CreationDate,2026-08-30T21:59:24+02:00*%
%TF.ProjectId,flippa,666c6970-7061-42e6-9b69-6361645f7063,rev?*%
%TF.SameCoordinates,Original*%
%TF.FileFunction,Soldermask,Bot*%
%TF.FilePolarity,Negative*%
%FSLAX46Y46*%
G04 Gerber Fmt 4.6, Leading zero omitted, Abs format (unit mm)*
G04 Created by KiCad (PCBNEW 10.0.5) date 2026-08-30 21:59:24*
%MOMM*%
%LPD*%
G01*
G04 APERTURE LIST*
G04 Aperture macros list*
%AMRoundRect*
0 Rectangle with rounded corners*
0 $1 Rounding radius*
0 $2 $3 $4 $5 $6 $7 $8 $9 X,Y pos of 4 corners*
0 Add a 4 corners polygon primitive as box body*
4,1,4,$2,$3,$4,$5,$6,$7,$8,$9,$2,$3,0*
0 Add four circle primitives for the rounded corners*
1,1,$1+$1,$2,$3*
1,1,$1+$1,$4,$5*
1,1,$1+$1,$6,$7*
1,1,$1+$1,$8,$9*
0 Add four rect primitives between the rounded corners*
20,1,$1+$1,$2,$3,$4,$5,0*
20,1,$1+$1,$4,$5,$6,$7,0*
20,1,$1+$1,$6,$7,$8,$9,0*
20,1,$1+$1,$8,$9,$2,$3,0*%
G04 Aperture macros list end*
%ADD10RoundRect,0.250000X0.350000X0.625000X-0.350000X0.625000X-0.350000X-0.625000X0.350000X-0.625000X0*%
%ADD11O,1.200000X1.750000*%
%ADD12C,0.650000*%
%ADD13O,2.100000X1.000000*%
%ADD14O,1.800000X1.000000*%
%ADD15RoundRect,0.300000X0.700000X-0.700000X0.700000X0.700000X-0.700000X0.700000X-0.700000X-0.700000X0*%
%ADD16R,1.350000X1.350000*%
%ADD17C,1.350000*%
G04 APERTURE END LIST*
D10*
%TO.C,J2*%
X94500000Y-23950000D03*
D11*
X92500000Y-23950000D03*
%TD*%
D12*
%TO.C,P1*%
X107795000Y-25890000D03*
X107795000Y-20110000D03*
D13*
X107295000Y-27320000D03*
D14*
X111475000Y-27320000D03*
D13*
X107295000Y-18680000D03*
D14*
X111475000Y-18680000D03*
%TD*%
D15*
%TO.C,U2*%
X22500000Y-24750000D03*
X25000000Y-24750000D03*
X27500000Y-24750000D03*
X30000000Y-24750000D03*
X32500000Y-24750000D03*
X35000000Y-24750000D03*
X37500000Y-24750000D03*
X40000000Y-24750000D03*
X42500000Y-24750000D03*
X45000000Y-24750000D03*
X47500000Y-24750000D03*
X50000000Y-24750000D03*
X52500000Y-24750000D03*
X55000000Y-24750000D03*
X57500000Y-24750000D03*
X60000000Y-24750000D03*
X62500000Y-24750000D03*
X65000000Y-24750000D03*
X67500000Y-24750000D03*
X70000000Y-24750000D03*
X70000000Y-39990000D03*
X67500000Y-39990000D03*
X65000000Y-39990000D03*
X62500000Y-39870000D03*
X60000000Y-39990000D03*
X57500000Y-39990000D03*
X55000000Y-39990000D03*
X52500000Y-39990000D03*
X50000000Y-39990000D03*
X47500000Y-39990000D03*
X45000000Y-39990000D03*
X42500000Y-39990000D03*
X40000000Y-39990000D03*
X37500000Y-39990000D03*
X35000000Y-39990000D03*
X45000000Y-35370000D03*
X45000000Y-33370000D03*
X45000000Y-31370000D03*
X45000000Y-29370000D03*
%TD*%
D16*
%TO.C,J3*%
X27000000Y-19500000D03*
D17*
X29000000Y-19500000D03*
X31000000Y-19500000D03*
X33000000Y-19500000D03*
X35000000Y-19500000D03*
X37000000Y-19500000D03*
X39000000Y-19500000D03*
X41000000Y-19500000D03*
X43000000Y-19500000D03*
X45000000Y-19500000D03*
X47000000Y-19500000D03*
X49000000Y-19500000D03*
X51000000Y-19500000D03*
X53000000Y-19500000D03*
X55000000Y-19500000D03*
X57000000Y-19500000D03*
X59000000Y-19500000D03*
X61000000Y-19500000D03*
X63000000Y-19500000D03*
X65000000Y-19500000D03*
%TD*%
D16*
%TO.C,J4*%
X65500000Y-44500000D03*
D17*
X63500000Y-44500000D03*
X61500000Y-44500000D03*
X59500000Y-44500000D03*
X57500000Y-44500000D03*
X55500000Y-44500000D03*
X53500000Y-44500000D03*
X51500000Y-44500000D03*
X49500000Y-44500000D03*
X47500000Y-44500000D03*
X45500000Y-44500000D03*
X43500000Y-44500000D03*
X41500000Y-44500000D03*
X39500000Y-44500000D03*
X37500000Y-44500000D03*
%TD*%
M02*
