%TF.GenerationSoftware,KiCad,Pcbnew,10.0.5*%
%TF.CreationDate,2026-08-30T21:59:24+02:00*%
%TF.ProjectId,flippa,666c6970-7061-42e6-9b69-6361645f7063,rev?*%
%TF.SameCoordinates,Original*%
%TF.FileFunction,Soldermask,Top*%
%TF.FilePolarity,Negative*%
%FSLAX46Y46*%
G04 Gerber Fmt 4.6, Leading zero omitted, Abs format (unit mm)*
G04 Created by KiCad (PCBNEW 10.0.5) date 2026-08-30 21:59:24*
%MOMM*%
%LPD*%
G01*
G04 APERTURE LIST*
G04 Aperture macros list*
%AMRoundRect*
0 Rectangle with rounded corners*
0 $1 Rounding radius*
0 $2 $3 $4 $5 $6 $7 $8 $9 X,Y pos of 4 corners*
0 Add a 4 corners polygon primitive as box body*
4,1,4,$2,$3,$4,$5,$6,$7,$8,$9,$2,$3,0*
0 Add four circle primitives for the rounded corners*
1,1,$1+$1,$2,$3*
1,1,$1+$1,$4,$5*
1,1,$1+$1,$6,$7*
1,1,$1+$1,$8,$9*
0 Add four rect primitives between the rounded corners*
20,1,$1+$1,$2,$3,$4,$5,0*
20,1,$1+$1,$4,$5,$6,$7,0*
20,1,$1+$1,$6,$7,$8,$9,0*
20,1,$1+$1,$8,$9,$2,$3,0*%
G04 Aperture macros list end*
%ADD10RoundRect,0.250000X-0.250000X-0.475000X0.250000X-0.475000X0.250000X0.475000X-0.250000X0.475000X0*%
%ADD11RoundRect,0.250000X-0.262500X-0.450000X0.262500X-0.450000X0.262500X0.450000X-0.262500X0.450000X0*%
%ADD12RoundRect,0.250000X0.350000X0.625000X-0.350000X0.625000X-0.350000X-0.625000X0.350000X-0.625000X0*%
%ADD13O,1.200000X1.750000*%
%ADD14RoundRect,0.250000X0.262500X0.450000X-0.262500X0.450000X-0.262500X-0.450000X0.262500X-0.450000X0*%
%ADD15RoundRect,0.243750X-0.243750X-0.456250X0.243750X-0.456250X0.243750X0.456250X-0.243750X0.456250X0*%
%ADD16RoundRect,0.090000X-0.310000X-0.210000X0.310000X-0.210000X0.310000X0.210000X-0.310000X0.210000X0*%
%ADD17RoundRect,0.360000X-0.840000X-1.290000X0.840000X-1.290000X0.840000X1.290000X-0.840000X1.290000X0*%
%ADD18C,0.650000*%
%ADD19RoundRect,0.150000X0.425000X-0.150000X0.425000X0.150000X-0.425000X0.150000X-0.425000X-0.150000X0*%
%ADD20RoundRect,0.075000X0.500000X-0.075000X0.500000X0.075000X-0.500000X0.075000X-0.500000X-0.075000X0*%
%ADD21O,2.100000X1.000000*%
%ADD22O,1.800000X1.000000*%
%ADD23RoundRect,0.300000X0.700000X-0.700000X0.700000X0.700000X-0.700000X0.700000X-0.700000X-0.700000X0*%
%ADD24R,1.350000X1.350000*%
%ADD25C,1.350000*%
%ADD26R,0.800000X1.500000*%
%ADD27R,1.450000X2.000000*%
%ADD28R,0.900000X1.000000*%
%ADD29RoundRect,0.218750X-0.218750X-0.381250X0.218750X-0.381250X0.218750X0.381250X-0.218750X0.381250X0*%
%ADD30RoundRect,0.250000X0.250000X0.475000X-0.250000X0.475000X-0.250000X-0.475000X0.250000X-0.475000X0*%
G04 APERTURE END LIST*
D10*
%TO.C,C1*%
X88550000Y-41250000D03*
X90450000Y-41250000D03*
%TD*%
D11*
%TO.C,R2*%
X88587500Y-39250000D03*
X90412500Y-39250000D03*
%TD*%
D12*
%TO.C,J2*%
X94500000Y-23950000D03*
D13*
X92500000Y-23950000D03*
%TD*%
D14*
%TO.C,R4*%
X96412500Y-36250000D03*
X94587500Y-36250000D03*
%TD*%
D10*
%TO.C,C2*%
X83050000Y-43250000D03*
X84950000Y-43250000D03*
%TD*%
D11*
%TO.C,R1*%
X88675000Y-43250000D03*
X90500000Y-43250000D03*
%TD*%
D15*
%TO.C,D3*%
X111062500Y-39750000D03*
X112937500Y-39750000D03*
%TD*%
D10*
%TO.C,C6*%
X92550000Y-31750000D03*
X94450000Y-31750000D03*
%TD*%
D16*
%TO.C,U1*%
X101800000Y-39250000D03*
X101800000Y-40520000D03*
X101800000Y-41790000D03*
X101800000Y-43060000D03*
X106500000Y-43060000D03*
X106500000Y-41790000D03*
X106500000Y-40520000D03*
X106500000Y-39250000D03*
D17*
X104150000Y-41250000D03*
%TD*%
D10*
%TO.C,C3*%
X83100000Y-40750000D03*
X85000000Y-40750000D03*
%TD*%
D18*
%TO.C,P1*%
X107795000Y-25890000D03*
X107795000Y-20110000D03*
D19*
X106720000Y-26200000D03*
X106720000Y-25400000D03*
D20*
X106720000Y-24250000D03*
X106720000Y-23250000D03*
X106720000Y-22750000D03*
X106720000Y-21750000D03*
D19*
X106720000Y-20600000D03*
X106720000Y-19800000D03*
X106720000Y-19800000D03*
X106720000Y-20600000D03*
D20*
X106720000Y-21250000D03*
X106720000Y-22250000D03*
X106720000Y-23750000D03*
X106720000Y-24750000D03*
D19*
X106720000Y-25400000D03*
X106720000Y-26200000D03*
D21*
X107295000Y-27320000D03*
D22*
X111475000Y-27320000D03*
D21*
X107295000Y-18680000D03*
D22*
X111475000Y-18680000D03*
%TD*%
D11*
%TO.C,R7*%
X65087500Y-29750000D03*
X66912500Y-29750000D03*
%TD*%
D23*
%TO.C,U2*%
X22500000Y-24750000D03*
X25000000Y-24750000D03*
X27500000Y-24750000D03*
X30000000Y-24750000D03*
X32500000Y-24750000D03*
X35000000Y-24750000D03*
X37500000Y-24750000D03*
X40000000Y-24750000D03*
X42500000Y-24750000D03*
X45000000Y-24750000D03*
X47500000Y-24750000D03*
X50000000Y-24750000D03*
X52500000Y-24750000D03*
X55000000Y-24750000D03*
X57500000Y-24750000D03*
X60000000Y-24750000D03*
X62500000Y-24750000D03*
X65000000Y-24750000D03*
X67500000Y-24750000D03*
X70000000Y-24750000D03*
X70000000Y-39990000D03*
X67500000Y-39990000D03*
X65000000Y-39990000D03*
X62500000Y-39870000D03*
X60000000Y-39990000D03*
X57500000Y-39990000D03*
X55000000Y-39990000D03*
X52500000Y-39990000D03*
X50000000Y-39990000D03*
X47500000Y-39990000D03*
X45000000Y-39990000D03*
X42500000Y-39990000D03*
X40000000Y-39990000D03*
X37500000Y-39990000D03*
X35000000Y-39990000D03*
X45000000Y-35370000D03*
X45000000Y-33370000D03*
X45000000Y-31370000D03*
X45000000Y-29370000D03*
%TD*%
D15*
%TO.C,D1*%
X111062500Y-34750000D03*
X112937500Y-34750000D03*
%TD*%
D24*
%TO.C,J3*%
X27000000Y-19500000D03*
D25*
X29000000Y-19500000D03*
X31000000Y-19500000D03*
X33000000Y-19500000D03*
X35000000Y-19500000D03*
X37000000Y-19500000D03*
X39000000Y-19500000D03*
X41000000Y-19500000D03*
X43000000Y-19500000D03*
X45000000Y-19500000D03*
X47000000Y-19500000D03*
X49000000Y-19500000D03*
X51000000Y-19500000D03*
X53000000Y-19500000D03*
X55000000Y-19500000D03*
X57000000Y-19500000D03*
X59000000Y-19500000D03*
X61000000Y-19500000D03*
X63000000Y-19500000D03*
X65000000Y-19500000D03*
%TD*%
D10*
%TO.C,C5*%
X77050000Y-38250000D03*
X78950000Y-38250000D03*
%TD*%
D11*
%TO.C,R5*%
X65087500Y-37250000D03*
X66912500Y-37250000D03*
%TD*%
%TO.C,R3*%
X103087500Y-35250000D03*
X104912500Y-35250000D03*
%TD*%
D26*
%TO.C,J1*%
X77800000Y-22000000D03*
X78900000Y-22000000D03*
X80000000Y-22000000D03*
X81100000Y-22000000D03*
X82200000Y-22000000D03*
X83300000Y-22000000D03*
X84400000Y-22000000D03*
X85500000Y-22000000D03*
D27*
X74125000Y-19400000D03*
X74125000Y-27700000D03*
X87875000Y-19400000D03*
X87875000Y-27700000D03*
%TD*%
D28*
%TO.C,SW1*%
X93450000Y-40950000D03*
X97550000Y-40950000D03*
X93450000Y-42550000D03*
X97550000Y-42550000D03*
%TD*%
D29*
%TO.C,L1*%
X102875000Y-37750000D03*
X105000000Y-37750000D03*
%TD*%
D11*
%TO.C,R8*%
X65087500Y-27250000D03*
X66912500Y-27250000D03*
%TD*%
D15*
%TO.C,D2*%
X111062500Y-37250000D03*
X112937500Y-37250000D03*
%TD*%
%TO.C,D5*%
X94500000Y-38250000D03*
X96375000Y-38250000D03*
%TD*%
D10*
%TO.C,C7*%
X77050000Y-43250000D03*
X78950000Y-43250000D03*
%TD*%
D30*
%TO.C,C8*%
X66900000Y-32250000D03*
X65000000Y-32250000D03*
%TD*%
D11*
%TO.C,R6*%
X65000000Y-34750000D03*
X66825000Y-34750000D03*
%TD*%
D24*
%TO.C,J4*%
X65500000Y-44500000D03*
D25*
X63500000Y-44500000D03*
X61500000Y-44500000D03*
X59500000Y-44500000D03*
X57500000Y-44500000D03*
X55500000Y-44500000D03*
X53500000Y-44500000D03*
X51500000Y-44500000D03*
X49500000Y-44500000D03*
X47500000Y-44500000D03*
X45500000Y-44500000D03*
X43500000Y-44500000D03*
X41500000Y-44500000D03*
X39500000Y-44500000D03*
X37500000Y-44500000D03*
%TD*%
D15*
%TO.C,D4*%
X111062500Y-42250000D03*
X112937500Y-42250000D03*
%TD*%
D10*
%TO.C,C4*%
X83050000Y-38250000D03*
X84950000Y-38250000D03*
%TD*%
M02*
